<?xml version="1.0" encoding="UTF-8"?>
<!-- Created with Inkscape (http://www.inkscape.org/) -->
<svg width="114.85mm" height="114.85mm" version="1.1" viewBox="0 0 114.85 114.85" xmlns="http://www.w3.org/2000/svg">
 <g transform="translate(-19.898 -34.376)">
  <circle cx="77.324" cy="91.802" r="57.426" fill="#008080" stroke-width=".563"/>
  <rect x="20.112" y="34.212" width="114.42" height="107.99" ry="1.8775" display="none" fill="#008080" stroke-width=".23795"/>
  <path transform="matrix(.56109 0 0 .99536 32.918 5.1765)" d="m41.224 120.02c13.829 0 37.918 1e-4 37.918 1e-4v8.2698h-43.992s0.62962-8.2699 6.0739-8.2699zm75.837 0c-13.829 0-37.918 1e-4 -37.918 1e-4v8.2698h43.992s-0.62962-8.2699-6.0739-8.2699z" fill="#ffe6d5" fill-rule="evenodd" stroke-width=".29267"/>
  <path transform="matrix(.85692 0 0 1.9855 25.841 -118.08)" d="m49.82 97.954h10.259v22.761h-22.069s3.9937-22.761 11.81-22.761zm20.518 0h-10.259v22.761h22.069s-3.9937-22.761-11.81-22.761z" fill="#ffe6d5" stroke-width=".26458"/>
  <path d="m77.324 85.711a12.5 12.578 0 0 0-12.5 12.578 12.5 12.578 0 0 0 12.5 12.578 12.5 12.578 0 0 0 12.499-12.578 12.5 12.578 0 0 0-12.499-12.578zm0 2.3596a9.9013 10.218 0 0 1 9.901 10.218 9.9013 10.218 0 0 1-9.901 10.218 9.9013 10.218 0 0 1-9.9015-10.218 9.9013 10.218 0 0 1 9.9015-10.218z" fill="#008080" stroke-width=".34579"/>
  <path d="m77.324 87.111a11.114 11.177 0 0 0-11.114 11.177 11.114 11.177 0 0 0 11.114 11.177 11.114 11.177 0 0 0 11.113-11.177 11.114 11.177 0 0 0-11.113-11.177zm0 2.0968a8.8034 9.0803 0 0 1 8.8031 9.0802 8.8034 9.0803 0 0 1-8.8031 9.0802 8.8034 9.0803 0 0 1-8.8036-9.0802 8.8034 9.0803 0 0 1 8.8036-9.0802z" fill="#008080" stroke-width=".30737"/>
  <g fill="#ffe6d5" stroke-width=".20727">
   <path transform="translate(-1.0583)" x="101.53176" y="88.980255" width="27.065079" height="4.1953893" ry="2.0976946" d="m103.63 88.98h22.87c1.1621 0 2.0977 0.93557 2.0977 2.0977s-0.93557 2.0977-2.0977 2.0977h-22.87c-1.1621 0-2.0977-0.93557-2.0977-2.0977s0.93557-2.0977 2.0977-2.0977z"/>
   <path d="m79.422 42.534v22.87c0 1.1621-0.93557 2.0977-2.0977 2.0977s-2.0977-0.93557-2.0977-2.0977v-22.87c0-1.1621 0.93557-2.0977 2.0977-2.0977s2.0977 0.93557 2.0977 2.0977z"/>
   <path transform="rotate(-45 79.907 91.2)" x="101.53176" y="88.980255" width="27.065079" height="4.1953893" ry="2.0976946" d="m103.63 88.98h22.87c1.1621 0 2.0977 0.93557 2.0977 2.0977s-0.93557 2.0977-2.0977 2.0977h-22.87c-1.1621 0-2.0977-0.93557-2.0977-2.0977s0.93557-2.0977 2.0977-2.0977z"/>
   <path transform="matrix(-.70711 -.70711 -.70711 .70711 195.73 83.214)" d="m103.63 88.98h22.87c1.1621 0 2.0977 0.93557 2.0977 2.0977s-0.93557 2.0977-2.0977 2.0977h-22.87c-1.1621 0-2.0977-0.93557-2.0977-2.0977s0.93557-2.0977 2.0977-2.0977z"/>
   <path transform="matrix(-1 0 0 1 155.71 0)" d="m103.63 88.98h22.87c1.1621 0 2.0977 0.93557 2.0977 2.0977s-0.93557 2.0977-2.0977 2.0977h-22.87c-1.1621 0-2.0977-0.93557-2.0977-2.0977s0.93557-2.0977 2.0977-2.0977z"/>
  </g>
 </g>
</svg>
